<svg width="195" height="42" viewBox="0 0 195 42" fill="none" xmlns="http://www.w3.org/2000/svg">
<path d="M94.9844 20.0156H90.0156V12H87.0156L97 3L106.984 12H103.984V20.0156H99.0156V14.0156H94.9844V20.0156Z" fill="#666666"/>
<path d="M87.4717 41H86.1523V36.3994H81.1348V41H79.8223V31.0469H81.1348V35.3262H86.1523V31.0469H87.4717V41ZM89.2695 37.2334C89.2695 36.5088 89.4108 35.8571 89.6934 35.2783C89.9805 34.6995 90.377 34.2529 90.8828 33.9385C91.3932 33.624 91.9743 33.4668 92.626 33.4668C93.6331 33.4668 94.4466 33.8154 95.0664 34.5127C95.6908 35.21 96.0029 36.1374 96.0029 37.2949V37.3838C96.0029 38.1038 95.8639 38.751 95.5859 39.3252C95.3125 39.8949 94.9183 40.3392 94.4033 40.6582C93.8929 40.9772 93.305 41.1367 92.6396 41.1367C91.637 41.1367 90.8236 40.7881 90.1992 40.0908C89.5794 39.3936 89.2695 38.4707 89.2695 37.3223V37.2334ZM90.541 37.3838C90.541 38.2041 90.7301 38.8626 91.1084 39.3594C91.4912 39.8561 92.0016 40.1045 92.6396 40.1045C93.2822 40.1045 93.7926 39.8538 94.1709 39.3525C94.5492 38.8467 94.7383 38.1403 94.7383 37.2334C94.7383 36.4222 94.5446 35.766 94.1572 35.2646C93.7744 34.7588 93.264 34.5059 92.626 34.5059C92.0016 34.5059 91.498 34.7542 91.1152 35.251C90.7324 35.7477 90.541 36.4587 90.541 37.3838ZM98.7783 33.6035L98.8125 34.4238C99.3548 33.7858 100.086 33.4668 101.007 33.4668C102.041 33.4668 102.745 33.8633 103.119 34.6562C103.365 34.3008 103.684 34.0137 104.076 33.7949C104.473 33.5762 104.94 33.4668 105.478 33.4668C107.1 33.4668 107.925 34.3258 107.952 36.0439V41H106.688V36.1191C106.688 35.5905 106.567 35.1963 106.325 34.9365C106.084 34.6722 105.678 34.54 105.108 34.54C104.639 34.54 104.249 34.6813 103.939 34.9639C103.63 35.2419 103.45 35.6178 103.399 36.0918V41H102.128V36.1533C102.128 35.0778 101.602 34.54 100.549 34.54C99.7194 34.54 99.152 34.8932 98.8467 35.5996V41H97.582V33.6035H98.7783ZM112.936 41.1367C111.933 41.1367 111.117 40.8086 110.488 40.1523C109.859 39.4915 109.545 38.6097 109.545 37.5068V37.2744C109.545 36.5407 109.684 35.8867 109.962 35.3125C110.244 34.7337 110.636 34.2826 111.138 33.959C111.644 33.6309 112.19 33.4668 112.778 33.4668C113.74 33.4668 114.487 33.7835 115.021 34.417C115.554 35.0505 115.82 35.9574 115.82 37.1377V37.6641H110.81C110.828 38.3932 111.04 38.9834 111.445 39.4346C111.855 39.8812 112.375 40.1045 113.004 40.1045C113.451 40.1045 113.829 40.0133 114.139 39.8311C114.449 39.6488 114.72 39.4072 114.952 39.1064L115.725 39.708C115.105 40.6605 114.175 41.1367 112.936 41.1367ZM112.778 34.5059C112.268 34.5059 111.84 34.6927 111.493 35.0664C111.147 35.4355 110.933 35.9551 110.851 36.625H114.556V36.5293C114.519 35.8867 114.346 35.39 114.036 35.0391C113.726 34.6836 113.307 34.5059 112.778 34.5059Z" fill="black" fill-opacity="0.54"/>
</svg>
