<svg width="195" height="38" viewBox="0 0 195 38" fill="none" xmlns="http://www.w3.org/2000/svg">
<path d="M76.7578 28.4688L79.5469 35.4297L82.3359 28.4688H83.7949V37H82.6699V33.6777L82.7754 30.0918L79.9746 37H79.1133L76.3184 30.1094L76.4297 33.6777V37H75.3047V28.4688H76.7578ZM89.5254 37C89.4629 36.875 89.4121 36.6523 89.373 36.332C88.8691 36.8555 88.2676 37.1172 87.5684 37.1172C86.9434 37.1172 86.4297 36.9414 86.0273 36.5898C85.6289 36.2344 85.4297 35.7852 85.4297 35.2422C85.4297 34.582 85.6797 34.0703 86.1797 33.707C86.6836 33.3398 87.3906 33.1562 88.3008 33.1562H89.3555V32.6582C89.3555 32.2793 89.2422 31.9785 89.0156 31.7559C88.7891 31.5293 88.4551 31.416 88.0137 31.416C87.627 31.416 87.3027 31.5137 87.041 31.709C86.7793 31.9043 86.6484 32.1406 86.6484 32.418H85.5586C85.5586 32.1016 85.6699 31.7969 85.8926 31.5039C86.1191 31.207 86.4238 30.9727 86.8066 30.8008C87.1934 30.6289 87.6172 30.543 88.0781 30.543C88.8086 30.543 89.3809 30.7266 89.7949 31.0938C90.209 31.457 90.4238 31.959 90.4395 32.5996V35.5176C90.4395 36.0996 90.5137 36.5625 90.6621 36.9062V37H89.5254ZM87.7266 36.1738C88.0664 36.1738 88.3887 36.0859 88.6934 35.9102C88.998 35.7344 89.2188 35.5059 89.3555 35.2246V33.9238H88.5059C87.1777 33.9238 86.5137 34.3125 86.5137 35.0898C86.5137 35.4297 86.627 35.6953 86.8535 35.8867C87.0801 36.0781 87.3711 36.1738 87.7266 36.1738ZM93.6094 29.125V30.6602H94.793V31.498H93.6094V35.4297C93.6094 35.6836 93.6621 35.875 93.7676 36.0039C93.873 36.1289 94.0527 36.1914 94.3066 36.1914C94.4316 36.1914 94.6035 36.168 94.8223 36.1211V37C94.5371 37.0781 94.2598 37.1172 93.9902 37.1172C93.5059 37.1172 93.1406 36.9707 92.8945 36.6777C92.6484 36.3848 92.5254 35.9688 92.5254 35.4297V31.498H91.3711V30.6602H92.5254V29.125H93.6094ZM98.6074 36.2324C98.9941 36.2324 99.332 36.1152 99.6211 35.8809C99.9102 35.6465 100.07 35.3535 100.102 35.002H101.127C101.107 35.3652 100.982 35.7109 100.752 36.0391C100.521 36.3672 100.213 36.6289 99.8262 36.8242C99.4434 37.0195 99.0371 37.1172 98.6074 37.1172C97.7441 37.1172 97.0566 36.8301 96.5449 36.2559C96.0371 35.6777 95.7832 34.8887 95.7832 33.8887V33.707C95.7832 33.0898 95.8965 32.541 96.123 32.0605C96.3496 31.5801 96.6738 31.207 97.0957 30.9414C97.5215 30.6758 98.0234 30.543 98.6016 30.543C99.3125 30.543 99.9023 30.7559 100.371 31.1816C100.844 31.6074 101.096 32.1602 101.127 32.8398H100.102C100.07 32.4297 99.9141 32.0938 99.6328 31.832C99.3555 31.5664 99.0117 31.4336 98.6016 31.4336C98.0508 31.4336 97.623 31.6328 97.3184 32.0312C97.0176 32.4258 96.8672 32.998 96.8672 33.748V33.9531C96.8672 34.6836 97.0176 35.2461 97.3184 35.6406C97.6191 36.0352 98.0488 36.2324 98.6074 36.2324ZM103.43 31.4277C103.91 30.8379 104.535 30.543 105.305 30.543C106.645 30.543 107.32 31.2988 107.332 32.8105V37H106.248V32.8047C106.244 32.3477 106.139 32.0098 105.932 31.791C105.729 31.5723 105.41 31.4629 104.977 31.4629C104.625 31.4629 104.316 31.5566 104.051 31.7441C103.785 31.9316 103.578 32.1777 103.43 32.4824V37H102.346V28H103.43V31.4277ZM111.586 37.1172C110.727 37.1172 110.027 36.8359 109.488 36.2734C108.949 35.707 108.68 34.9512 108.68 34.0059V33.8066C108.68 33.1777 108.799 32.6172 109.037 32.125C109.279 31.6289 109.615 31.2422 110.045 30.9648C110.479 30.6836 110.947 30.543 111.451 30.543C112.275 30.543 112.916 30.8145 113.373 31.3574C113.83 31.9004 114.059 32.6777 114.059 33.6895V34.1406H109.764C109.779 34.7656 109.961 35.2715 110.309 35.6582C110.66 36.041 111.105 36.2324 111.645 36.2324C112.027 36.2324 112.352 36.1543 112.617 35.998C112.883 35.8418 113.115 35.6348 113.314 35.377L113.977 35.8926C113.445 36.709 112.648 37.1172 111.586 37.1172ZM111.451 31.4336C111.014 31.4336 110.646 31.5938 110.35 31.9141C110.053 32.2305 109.869 32.6758 109.799 33.25H112.975V33.168C112.943 32.6172 112.795 32.1914 112.529 31.8906C112.264 31.5859 111.904 31.4336 111.451 31.4336ZM119.01 35.3184C119.01 35.0254 118.898 34.7988 118.676 34.6387C118.457 34.4746 118.072 34.334 117.521 34.2168C116.975 34.0996 116.539 33.959 116.215 33.7949C115.895 33.6309 115.656 33.4355 115.5 33.209C115.348 32.9824 115.271 32.7129 115.271 32.4004C115.271 31.8809 115.49 31.4414 115.928 31.082C116.369 30.7227 116.932 30.543 117.615 30.543C118.334 30.543 118.916 30.7285 119.361 31.0996C119.811 31.4707 120.035 31.9453 120.035 32.5234H118.945C118.945 32.2266 118.818 31.9707 118.564 31.7559C118.314 31.541 117.998 31.4336 117.615 31.4336C117.221 31.4336 116.912 31.5195 116.689 31.6914C116.467 31.8633 116.355 32.0879 116.355 32.3652C116.355 32.627 116.459 32.8242 116.666 32.957C116.873 33.0898 117.246 33.2168 117.785 33.3379C118.328 33.459 118.768 33.6035 119.104 33.7715C119.439 33.9395 119.688 34.1426 119.848 34.3809C120.012 34.6152 120.094 34.9023 120.094 35.2422C120.094 35.8086 119.867 36.2637 119.414 36.6074C118.961 36.9473 118.373 37.1172 117.65 37.1172C117.143 37.1172 116.693 37.0273 116.303 36.8477C115.912 36.668 115.605 36.418 115.383 36.0977C115.164 35.7734 115.055 35.4238 115.055 35.0488H116.139C116.158 35.4121 116.303 35.7012 116.572 35.916C116.846 36.127 117.205 36.2324 117.65 36.2324C118.061 36.2324 118.389 36.1504 118.635 35.9863C118.885 35.8184 119.01 35.5957 119.01 35.3184Z" fill="#666666"/>
<path d="M97.9844 18.3281L96.5312 17.0156C94.875 15.5156 93.6719 14.4062 92.9219 13.6875C92.1719 12.9688 91.3281 12.0781 90.3906 11.0156C89.4844 9.95312 88.8594 9 88.5156 8.15625C88.1719 7.28125 88 6.39062 88 5.48438C88 3.95312 88.5156 2.65625 89.5469 1.59375C90.6094 0.53125 91.9219 0 93.4844 0C95.2969 0 96.7969 0.703125 97.9844 2.10938C99.1719 0.703125 100.672 0 102.484 0C104.047 0 105.344 0.53125 106.375 1.59375C107.438 2.65625 107.969 3.95312 107.969 5.48438C107.969 6.70312 107.562 7.96875 106.75 9.28125C105.938 10.5938 105.047 11.7344 104.078 12.7031C103.141 13.6719 101.594 15.125 99.4375 17.0625L97.9844 18.3281Z" fill="#666666"/>
</svg>
