<svg width="512" height="117" viewBox="0 0 512 117" fill="none" xmlns="http://www.w3.org/2000/svg">
<path d="M112.32 83.6567C112.207 90.5834 108.516 93.0897 104.598 92.8574C100.68 92.6262 97.9546 90.8095 95.1719 90.8095L95.0579 90.8732C92.2752 90.8732 89.5502 92.7536 85.6322 92.9848C81.7141 93.216 78.0231 90.8362 77.9102 83.9095C78.1373 77.5499 82.9822 77.0823 87.1089 69.5698C90.7426 62.9544 95.0581 63.4897 95.0581 63.4897H95.1719C95.1719 63.4897 99.5246 62.9831 103.121 69.5698C107.228 77.0926 112.093 77.297 112.32 83.6567ZM88.0611 60.6358C91.5315 60.3727 94.0458 56.2145 93.6768 51.348C93.3078 46.4817 90.1953 42.75 86.7249 43.0131C83.2545 43.2763 80.7402 47.4346 81.1092 52.3009C81.4782 57.1672 84.5906 60.899 88.0611 60.6358ZM101.214 60.7203C104.606 61.6448 108.406 58.5393 109.702 53.784C110.998 49.0287 109.3 44.4243 105.909 43.4999C102.517 42.5754 98.7171 45.6809 97.421 50.4362C96.1247 55.1914 97.8231 59.7959 101.214 60.7203ZM116.927 56.9129C113.973 56.1078 110.664 58.812 109.535 62.953C108.406 67.0941 109.885 71.1036 112.839 71.9086C115.792 72.7137 119.101 70.0094 120.23 65.8684C121.359 61.7275 119.88 57.7179 116.927 56.9129ZM82.0739 62.9527C80.945 58.8119 77.6359 56.1075 74.6825 56.9126C71.7292 57.7176 70.25 61.7272 71.3788 65.8682C72.5077 70.009 75.817 72.7133 78.7703 71.9083C81.7236 71.1034 83.2026 67.0938 82.0739 62.9527Z" fill="white"/>
<path d="M37.056 25.8C43.008 25.8 48.16 26.792 52.512 28.776C56.928 30.76 60.32 33.576 62.688 37.224C65.056 40.872 66.24 45.192 66.24 50.184C66.24 55.112 65.056 59.432 62.688 63.144C60.32 66.792 56.928 69.608 52.512 71.592C48.16 73.512 43.008 74.472 37.056 74.472H23.52V93H7.968V25.8H37.056ZM36.192 61.8C40.864 61.8 44.416 60.808 46.848 58.824C49.28 56.776 50.496 53.896 50.496 50.184C50.496 46.408 49.28 43.528 46.848 41.544C44.416 39.496 40.864 38.472 36.192 38.472H23.52V61.8H36.192ZM214.544 41.352L195.824 93H181.424L169.808 60.936L157.808 93H143.408L124.784 41.352H138.896L151.088 76.296L163.76 41.352H176.432L188.72 76.296L201.296 41.352H214.544ZM278.837 25.8C284.789 25.8 289.941 26.792 294.293 28.776C298.709 30.76 302.101 33.576 304.469 37.224C306.837 40.872 308.021 45.192 308.021 50.184C308.021 55.112 306.837 59.432 304.469 63.144C302.101 66.792 298.709 69.608 294.293 71.592C289.941 73.512 284.789 74.472 278.837 74.472H265.301V93H249.749V25.8H278.837ZM277.973 61.8C282.645 61.8 286.197 60.808 288.629 58.824C291.061 56.776 292.277 53.896 292.277 50.184C292.277 46.408 291.061 43.528 288.629 41.544C286.197 39.496 282.645 38.472 277.973 38.472H265.301V61.8H277.973ZM338.432 40.584C346.432 40.584 352.576 42.504 356.864 46.344C361.152 50.12 363.296 55.848 363.296 63.528V93H349.28V86.568C346.464 91.368 341.216 93.768 333.536 93.768C329.568 93.768 326.112 93.096 323.168 91.752C320.288 90.408 318.08 88.552 316.544 86.184C315.008 83.816 314.24 81.128 314.24 78.12C314.24 73.32 316.032 69.544 319.616 66.792C323.264 64.04 328.864 62.664 336.416 62.664H348.32C348.32 59.4 347.328 56.904 345.344 55.176C343.36 53.384 340.384 52.488 336.416 52.488C333.664 52.488 330.944 52.936 328.256 53.832C325.632 54.664 323.392 55.816 321.536 57.288L316.16 46.824C318.976 44.84 322.336 43.304 326.24 42.216C330.208 41.128 334.272 40.584 338.432 40.584ZM337.28 83.688C339.84 83.688 342.112 83.112 344.096 81.96C346.08 80.744 347.488 78.984 348.32 76.68V71.4H338.048C331.904 71.4 328.832 73.416 328.832 77.448C328.832 79.368 329.568 80.904 331.04 82.056C332.576 83.144 334.656 83.688 337.28 83.688ZM391.154 48.168C392.946 45.672 395.346 43.784 398.354 42.504C401.426 41.224 404.946 40.584 408.914 40.584V54.408C407.25 54.28 406.13 54.216 405.554 54.216C401.266 54.216 397.906 55.432 395.474 57.864C393.042 60.232 391.826 63.816 391.826 68.616V93H376.85V41.352H391.154V48.168ZM452.912 90.504C451.44 91.592 449.616 92.424 447.44 93C445.328 93.512 443.088 93.768 440.72 93.768C434.576 93.768 429.808 92.2 426.416 89.064C423.088 85.928 421.424 81.32 421.424 75.24V54.024H413.456V42.504H421.424V29.928H436.4V42.504H449.264V54.024H436.4V75.048C436.4 77.224 436.944 78.92 438.031 80.136C439.184 81.288 440.784 81.864 442.832 81.864C445.2 81.864 447.216 81.224 448.88 79.944L452.912 90.504ZM511.645 41.352L488.317 96.168C485.949 102.12 483.005 106.312 479.485 108.744C476.029 111.176 471.837 112.392 466.909 112.392C464.221 112.392 461.565 111.976 458.941 111.144C456.317 110.312 454.173 109.16 452.509 107.688L457.981 97.032C459.133 98.056 460.445 98.856 461.917 99.432C463.453 100.008 464.957 100.296 466.429 100.296C468.477 100.296 470.141 99.784 471.421 98.76C472.701 97.8 473.853 96.168 474.877 93.864L475.069 93.384L452.701 41.352H468.157L482.653 76.392L497.245 41.352H511.645Z" fill="white"/>
</svg>
